<svg width="34" height="35" viewBox="0 0 34 35" fill="none" xmlns="http://www.w3.org/2000/svg">
<path d="M14.5554 4.24166H7.80348C5.81327 4.24166 4.81815 4.24166 4.05799 4.62899C3.38932 4.96969 2.84569 5.51333 2.505 6.18198C2.11768 6.94215 2.11768 7.93726 2.11768 9.92747V26.9849C2.11768 28.9751 2.11768 29.9703 2.505 30.7304C2.84569 31.399 3.38932 31.9427 4.05799 32.2834C4.81815 32.6707 5.81327 32.6707 7.80348 32.6707H24.8609C26.8511 32.6707 27.8463 32.6707 28.6064 32.2834C29.2751 31.9427 29.8188 31.399 30.1594 30.7304C30.5467 29.9703 30.5467 28.9751 30.5467 26.9849V19.3446M22.551 6.90688L27.5766 11.9325M14.1337 15.3242L25.9465 3.51142C27.3342 2.12364 29.5844 2.12364 30.9721 3.51142C32.36 4.89921 32.36 7.14924 30.9721 8.53702L18.7796 20.7294C17.4264 22.0828 16.7497 22.7595 15.979 23.2975C15.2949 23.7753 14.557 24.1708 13.7807 24.4764C12.906 24.8207 11.9679 25.01 10.0919 25.3886L9.22494 25.5634L9.30925 24.9732C9.60759 22.8849 9.75677 21.8407 10.0961 20.8657C10.3972 20.0006 10.8085 19.1781 11.3199 18.4182C11.8962 17.5617 12.6421 16.8158 14.1337 15.3242Z" stroke="white" stroke-width="3.55363" stroke-linecap="round" stroke-linejoin="round"/>
</svg>
