<svg width="29" height="28" viewBox="0 0 29 28" fill="none" xmlns="http://www.w3.org/2000/svg">
<path d="M14.3121 21.956H15.9423L16.4656 24.4173H14.062" stroke="white" stroke-width="0.72071" stroke-linecap="round" stroke-linejoin="round"/>
<path d="M27.4196 19.6173L19.0809 19.7708L15.9423 21.956L16.219 8.81605L17.9422 4.53936L26.3118 1.21617L27.666 5.33935L26.4351 10.2013L26.5583 12.6625L25.7583 13.843L27.4196 19.6173ZM27.4196 19.6173L25.9118 25.7405L19.7577 23.8328L16.4655 26.8172H14.312" stroke="white" stroke-width="0.72071" stroke-linecap="round" stroke-linejoin="round"/>
<path d="M25.7587 13.8431L19.8813 12.1089" stroke="white" stroke-width="0.72071" stroke-linecap="round" stroke-linejoin="round"/>
<path d="M26.4355 10.201L27.5125 10.0165" stroke="white" stroke-width="0.72071" stroke-linecap="round" stroke-linejoin="round"/>
<path d="M27.5124 11.3704L26.5 11.4933" stroke="white" stroke-width="0.72071" stroke-linecap="round" stroke-linejoin="round"/>
<path d="M16.0908 14.9131L21.8197 14.786" stroke="white" stroke-width="0.72071" stroke-linecap="round" stroke-linejoin="round"/>
<path d="M22.7272 19.7038L19.7579 23.8328L19.0812 19.7708L21.8199 14.7857L19.8812 12.109L16.2192 8.81605L26.3121 1.21617" stroke="white" stroke-width="0.72071" stroke-linecap="round" stroke-linejoin="round"/>
<path d="M15.9424 21.9557L19.758 23.8327" stroke="white" stroke-width="0.72071" stroke-linecap="round" stroke-linejoin="round"/>
<path d="M16.8193 18.0981L19.1155 17.244L17.4766 16.39L16.8193 18.0981Z" stroke="white" stroke-width="0.72071" stroke-linecap="round" stroke-linejoin="round"/>
<path d="M17.9424 4.53915H14.312" stroke="white" stroke-width="0.72071" stroke-linecap="round" stroke-linejoin="round"/>
<path d="M14.3542 21.956H12.7239L12.2007 24.4173H14.0623" stroke="white" stroke-width="0.72071" stroke-linecap="round" stroke-linejoin="round"/>
<path d="M1.24648 19.6173L9.58509 19.7708L12.7238 21.956L12.447 8.81605L10.7238 4.53936L2.35421 1.21617L1 5.33935L2.23097 10.2013L2.10773 12.6625L2.90772 13.843L1.24648 19.6173ZM1.24648 19.6173L2.75421 25.7405L8.90835 23.8328L12.2005 26.8172H14.354" stroke="white" stroke-width="0.72071" stroke-linecap="round" stroke-linejoin="round"/>
<path d="M2.90771 13.8431L8.78503 12.1089" stroke="white" stroke-width="0.72071" stroke-linecap="round" stroke-linejoin="round"/>
<path d="M2.23076 10.201L1.15381 10.0165" stroke="white" stroke-width="0.72071" stroke-linecap="round" stroke-linejoin="round"/>
<path d="M1.15381 11.3704L2.16619 11.4933" stroke="white" stroke-width="0.72071" stroke-linecap="round" stroke-linejoin="round"/>
<path d="M12.5755 14.9131L6.84668 14.786" stroke="white" stroke-width="0.72071" stroke-linecap="round" stroke-linejoin="round"/>
<path d="M5.9393 19.7038L8.90863 23.8328L9.58537 19.7708L6.84668 14.7857L8.78538 12.109L12.4473 8.81605L2.35449 1.21617" stroke="white" stroke-width="0.72071" stroke-linecap="round" stroke-linejoin="round"/>
<path d="M12.7239 21.9557L8.9082 23.8327" stroke="white" stroke-width="0.72071" stroke-linecap="round" stroke-linejoin="round"/>
<path d="M11.8465 18.0981L9.55029 17.244L11.1892 16.39L11.8465 18.0981Z" stroke="white" stroke-width="0.72071" stroke-linecap="round" stroke-linejoin="round"/>
<path d="M10.7236 4.53915H14.3541" stroke="white" stroke-width="0.72071" stroke-linecap="round" stroke-linejoin="round"/>
</svg>
