<svg width="20" height="20" viewBox="0 0 20 20" fill="none" xmlns="http://www.w3.org/2000/svg">
<path d="M1.53755 4.79621C1.51478 4.372 1.15238 4.04657 0.728102 4.06934C0.303827 4.09211 -0.0216462 4.45446 0.00112567 4.87866L1.53755 4.79621ZM2.52828 0.864459C2.23567 1.17248 2.2482 1.65934 2.55626 1.95191C2.86433 2.24448 3.35127 2.23195 3.64389 1.92394L2.52828 0.864459ZM8.62786 18.0127C8.98759 18.2387 9.46252 18.1304 9.6886 17.7707C9.91467 17.4111 9.80625 16.9362 9.44652 16.7102L8.62786 18.0127ZM13.1914 18.2651C12.7755 18.178 12.3678 18.4446 12.2807 18.8603C12.1936 19.2761 12.4601 19.6838 12.876 19.7709L13.1914 18.2651ZM13.7367 13.6348L14.2038 13.143L13.0882 12.0836L12.621 12.5754L13.7367 13.6348ZM15.7411 12.936L17.7008 14.0638L18.4684 12.7305L16.5087 11.6027L15.7411 12.936ZM18.079 16.4021L16.6219 17.936L17.7375 18.9954L19.1946 17.4616L18.079 16.4021ZM6.26358 14.0604C2.28761 9.87505 1.62068 6.34469 1.53755 4.79621L0.00112567 4.87866C0.102932 6.77523 0.908338 10.6571 5.14798 15.1199L6.26358 14.0604ZM7.67435 7.2534L7.9686 6.94371L6.85295 5.88423L6.55875 6.19392L7.67435 7.2534ZM8.19971 3.08795L6.90621 1.2588L5.64987 2.14694L6.94334 3.97608L8.19971 3.08795ZM7.11655 6.72366C6.55875 6.19392 6.55804 6.19467 6.55732 6.19542C6.55708 6.19569 6.55637 6.19645 6.55587 6.19696C6.5549 6.198 6.5539 6.19906 6.5529 6.20015C6.55088 6.20232 6.54879 6.20459 6.54664 6.20696C6.54233 6.21169 6.53777 6.2168 6.53297 6.22232C6.52338 6.23336 6.51283 6.24597 6.50156 6.26022C6.47901 6.28871 6.4535 6.32371 6.42674 6.36553C6.37308 6.44938 6.31488 6.55981 6.2656 6.69828C6.16538 6.97988 6.11077 7.35279 6.17901 7.81848C6.31309 8.73345 6.9127 9.96387 8.47943 11.613L9.59505 10.5536C8.13057 9.01201 7.76986 8.06261 7.70139 7.59546C7.66837 7.37008 7.70192 7.25133 7.7152 7.21404C7.72265 7.19307 7.72754 7.18725 7.72277 7.19471C7.72045 7.19832 7.71583 7.20511 7.70808 7.21492C7.70419 7.21982 7.69952 7.22548 7.69394 7.2319C7.69115 7.2351 7.68814 7.2385 7.68488 7.24209C7.68324 7.24388 7.68155 7.24572 7.6798 7.2476C7.67893 7.24855 7.67803 7.2495 7.67712 7.25047C7.67667 7.25095 7.67597 7.25169 7.67575 7.25192C7.67505 7.25266 7.67435 7.2534 7.11655 6.72366ZM8.47943 11.613C10.0415 13.2574 11.2213 13.9038 12.1214 14.05C12.5832 14.1249 12.9571 14.065 13.2402 13.9535C13.3786 13.8989 13.4881 13.8348 13.5703 13.7765C13.6112 13.7474 13.6454 13.7198 13.673 13.6957C13.6867 13.6836 13.6989 13.6723 13.7095 13.6621C13.7148 13.6571 13.7196 13.6521 13.7241 13.6476C13.7264 13.6454 13.7287 13.6431 13.7307 13.641C13.7317 13.6399 13.7328 13.6389 13.7337 13.6379C13.7342 13.6374 13.7349 13.6365 13.7352 13.6363C13.7359 13.6355 13.7367 13.6348 13.1788 13.1051C12.621 12.5754 12.6218 12.5746 12.6224 12.5739C12.6227 12.5736 12.6233 12.5729 12.6238 12.5724C12.6247 12.5715 12.6257 12.5705 12.6265 12.5696C12.6283 12.5678 12.6301 12.5659 12.6318 12.5642C12.6352 12.5608 12.6385 12.5575 12.6416 12.5545C12.6478 12.5486 12.6533 12.5435 12.6583 12.5392C12.6681 12.5305 12.6754 12.525 12.6801 12.5217C12.6897 12.5148 12.6887 12.5172 12.6756 12.5223C12.6558 12.5301 12.5627 12.563 12.368 12.5315C11.9551 12.4644 11.064 12.1 9.59505 10.5536L8.47943 11.613ZM6.90621 1.2588C5.86651 -0.211478 3.78605 -0.45953 2.52828 0.864459L3.64389 1.92394C4.18018 1.35939 5.12432 1.40374 5.64987 2.14694L6.90621 1.2588ZM16.6219 17.936C16.3356 18.2373 16.0362 18.3987 15.7451 18.4274L15.8963 19.9585C16.6625 19.8828 17.2827 19.4742 17.7375 18.9954L16.6219 17.936ZM7.9686 6.94371C8.96102 5.89895 9.03129 4.26397 8.19971 3.08795L6.94334 3.97608C7.37637 4.58844 7.30996 5.40315 6.85295 5.88423L7.9686 6.94371ZM17.7008 14.0638C18.5428 14.5484 18.7076 15.7405 18.079 16.4021L19.1946 17.4616C20.5332 16.0526 20.1433 13.6945 18.4684 12.7305L17.7008 14.0638ZM14.2038 13.143C14.5991 12.7268 15.2152 12.6333 15.7411 12.936L16.5087 11.6027C15.3819 10.9542 13.9845 11.1401 13.0882 12.0836L14.2038 13.143ZM9.44652 16.7102C8.43748 16.0761 7.36349 15.2182 6.26358 14.0604L5.14798 15.1199C6.33173 16.366 7.50452 17.3069 8.62786 18.0127L9.44652 16.7102ZM15.7451 18.4274C15.1845 18.4828 14.2973 18.4967 13.1914 18.2651L12.876 19.7709C14.1567 20.039 15.2031 20.0269 15.8963 19.9585L15.7451 18.4274Z" fill="#F9F1EC"/>
</svg>
