<svg width="25" height="22" viewBox="0 0 25 22" fill="none" xmlns="http://www.w3.org/2000/svg">
<path fill-rule="evenodd" clip-rule="evenodd" d="M24.9519 2.62395C25.3117 0.933186 23.589 -0.471872 21.919 0.15017L1.44769 7.77502C-0.417305 8.46966 -0.500404 10.9838 1.31493 11.7914L5.773 13.7751L7.89377 20.9307C8.00393 21.3024 8.30988 21.5902 8.69803 21.6871C9.08619 21.784 9.4986 21.6758 9.78213 21.4024L13.0489 18.2531L17.6251 21.5618C18.9535 22.5222 20.8667 21.8226 21.2004 20.2546L24.9519 2.62395ZM2.26341 9.81033L22.7347 2.1855L18.9832 19.8162L13.6218 15.9398C13.1713 15.614 12.5408 15.6572 12.1426 16.0411L10.7434 17.39L11.1638 15.161L19.4014 7.21973C19.8024 6.83325 19.8447 6.22043 19.5006 5.78608C19.1564 5.35172 18.5321 5.22989 18.0398 5.50106L6.66334 11.768L2.26341 9.81033ZM8.05046 13.5169L8.73669 15.8324L9.00016 14.4354C9.04134 14.2171 9.15061 14.016 9.31338 13.8592L11.8256 11.4374L8.05046 13.5169Z" fill="white"/>
</svg>
